# xmcd CD database file
# Copyright (C) 1993-1996 Ti Kan
#
# Track frame offsets:
#	183
#	14045
#	26945
#	41723
#	56438
#	68680
#	82010
#	95053
#	107310
#	117843
#	130768
#	163253
#	181650
#	193305
#	204375
#	217788
#	230775
#	243565
#	262013
#	273675
#	287430
#	300543
#	313190
#	325530
#
# Disc length: 4526 seconds
#
# Revision: 2
# Processed by: cddbd v1.4b41PL1 Copyright (c) Steve Scherf et al.
# Submitted via: CDValet v3.01 - Copyright (c) 1997 Greg Leichner
#
DISCID=6111ac18
DTITLE=Waters, Muddy/Wolf, Howlin' - The EP Collection
DYEAR=1900
DGENRE=
TTITLE0=I'M READY
TTITLE1=LOUSIANA BLUES
TTITLE2=STILL A FOOL
TTITLE3=LITTLE BROWN BIRD
TTITLE4=YOU NEED LOVE
TTITLE5=SHE MOVES ME
TTITLE6=I JUST WANT TO MAKE LOVE TO YOU
TTITLE7=I CAN'T BE SATISFIED
TTITLE8=MESSIN' WITH THE MAN
TTITLE9=HOOCHIE COOCHIE MAN'
TTITLE10=GOT MY MOJO WORKING
TTITLE11=WEE WEE BABY
TTITLE12=HOWLIN' FOR MY BABY
TTITLE13=YOU'LL BE MINE
TTITLE14=TELL ME
TTITLE15=YOU GONNA WRECK MY LIFE
TTITLE16=BACK DOOR MAN
TTITLE17=GOIN' DOWN SLOW
TTITLE18=MY COUNTRY SUGAR MAMA
TTITLE19=300 POUNDS OF JOY
TTITLE20=EVIL (IS GOIN' ON)
TTITLE21=SPOONFUL
TTITLE22=LOUISE
TTITLE23=SMOKESTACK LIGHTNIN'
EXTD=
EXTT0=
EXTT1=
EXTT2=
EXTT3=
EXTT4=
EXTT5=
EXTT6=
EXTT7=
EXTT8=
EXTT9=
EXTT10=
EXTT11=
EXTT12=
EXTT13=
EXTT14=
EXTT15=
EXTT16=
EXTT17=
EXTT18=
EXTT19=
EXTT20=
EXTT21=
EXTT22=
EXTT23=
PLAYORDER=
